<?xml version="1.0" encoding="UTF-8"?>
<svg xmlns="http://www.w3.org/2000/svg" xmlns:xlink="http://www.w3.org/1999/xlink" width="64pt" height="64pt" viewBox="0 0 64 64" version="1.1">
<g id="surface14479043">
<path style=" stroke:none;fill-rule:nonzero;fill:rgb(7.843137%,9.019608%,10.196078%);fill-opacity:1;" d="M 54.449219 54.449219 C 53.300781 55.601562 51.398438 55.601562 50.199219 54.449219 L 43.851562 48.101562 C 42.699219 46.949219 42.699219 45.050781 43.851562 43.851562 C 45 42.699219 46.898438 42.699219 48.101562 43.851562 L 54.449219 50.199219 C 55.601562 51.398438 55.601562 53.300781 54.449219 54.449219 Z M 54.449219 54.449219 "/>
<path style=" stroke:none;fill-rule:nonzero;fill:rgb(7.843137%,9.019608%,10.196078%);fill-opacity:1;" d="M 13.765625 13.792969 C 6.933594 20.628906 6.933594 31.710938 13.769531 38.542969 C 20.601562 45.378906 31.683594 45.378906 38.515625 38.542969 C 45.351562 31.707031 45.351562 20.628906 38.515625 13.792969 C 31.683594 6.960938 20.601562 6.960938 13.765625 13.792969 Z M 13.765625 13.792969 "/>
<path style=" stroke:none;fill-rule:nonzero;fill:rgb(7.843137%,9.019608%,10.196078%);fill-opacity:1;" d="M 13.765625 13.792969 C 6.933594 20.628906 6.933594 31.710938 13.769531 38.542969 C 20.601562 45.378906 31.683594 45.378906 38.515625 38.542969 C 45.351562 31.707031 45.351562 20.628906 38.515625 13.792969 C 31.683594 6.960938 20.601562 6.960938 13.765625 13.792969 Z M 13.765625 13.792969 "/>
<path style=" stroke:none;fill-rule:nonzero;fill:rgb(100%,54.117647%,0%);fill-opacity:1;" d="M 26.148438 42.148438 C 25.300781 42.148438 24.648438 41.5 24.648438 40.648438 C 24.648438 39.800781 25.300781 39.148438 26.148438 39.148438 C 29.601562 39.148438 32.898438 37.800781 35.351562 35.351562 C 38.550781 32.148438 39.851562 27.601562 38.800781 23.148438 C 38.601562 22.351562 39.101562 21.550781 39.898438 21.351562 C 40.699219 21.148438 41.5 21.648438 41.699219 22.449219 C 43 27.898438 41.449219 33.550781 37.5 37.5 C 34.449219 40.5 30.449219 42.148438 26.148438 42.148438 Z M 36.449219 17.5 C 36.050781 17.5 35.699219 17.351562 35.398438 17.050781 L 35.398438 17 C 34.800781 16.398438 34.800781 15.449219 35.398438 14.851562 C 36 14.25 36.898438 14.25 37.5 14.851562 L 37.550781 14.898438 C 38.148438 15.5 38.148438 16.449219 37.550781 17.050781 C 37.25 17.351562 36.851562 17.5 36.449219 17.5 Z M 36.449219 17.5 "/>
<path style=" stroke:none;fill-rule:nonzero;fill:rgb(44.313725%,44.313725%,44.313725%);fill-opacity:1;" d="M 26.148438 45.148438 C 21.300781 45.148438 16.398438 43.300781 12.699219 39.601562 C 5.300781 32.199219 5.300781 20.148438 12.699219 12.75 C 20.101562 5.351562 32.148438 5.351562 39.550781 12.75 C 47 20.148438 47 32.199219 39.601562 39.601562 C 35.898438 43.300781 31.050781 45.148438 26.148438 45.148438 Z M 26.148438 10.199219 C 22.050781 10.199219 17.949219 11.75 14.851562 14.898438 C 8.601562 21.148438 8.601562 31.300781 14.851562 37.550781 C 21.101562 43.699219 31.25 43.699219 37.5 37.5 C 43.75 31.25 43.75 21.101562 37.5 14.851562 C 34.351562 11.75 30.25 10.199219 26.148438 10.199219 Z M 55.5 49.148438 L 49.148438 42.800781 C 48.300781 41.949219 47.148438 41.5 45.949219 41.5 C 45.25 41.5 44.601562 41.648438 44 41.949219 L 42.75 40.699219 C 42.148438 40.101562 41.199219 40.101562 40.648438 40.699219 C 40.050781 41.300781 40.050781 42.25 40.648438 42.800781 L 41.898438 44.050781 C 41.101562 45.699219 41.398438 47.800781 42.75 49.148438 L 49.148438 55.5 C 50.050781 56.398438 51.199219 56.800781 52.351562 56.800781 C 53.5 56.800781 54.648438 56.351562 55.550781 55.5 C 56.398438 54.648438 56.851562 53.5 56.851562 52.300781 C 56.851562 51.148438 56.351562 50 55.5 49.148438 Z M 53.398438 53.398438 C 52.800781 54 51.851562 54 51.300781 53.398438 L 44.898438 47.050781 C 44.300781 46.449219 44.300781 45.5 44.898438 44.949219 C 45.199219 44.648438 45.550781 44.5 45.949219 44.5 C 46.351562 44.5 46.75 44.648438 47 44.949219 L 53.351562 51.300781 C 53.648438 51.601562 53.800781 51.949219 53.800781 52.351562 C 53.800781 52.75 53.699219 53.101562 53.398438 53.398438 Z M 53.398438 53.398438 "/>
</g>
</svg>
